# xmcd CD database file
#
# Track frame offsets:
#	183
#	23283
#	53058
#	69483
#	84858
#	106608
#	129708
#	156933
#	172608
#	190683
#	204333
#	247233
#	257583
#
# Disc length: 3597 seconds
#
# Revision: 1
# Processed by: cddbd v1.5.2PL0 Copyright (c) Steve Scherf et al.
# Submitted via: CDex 1.51
#
DISCID=970e0b0d
DTITLE=Lenehan - Lloyd Webber - English Idyll
DYEAR=1994
DGENRE=Chamber
TTITLE0=Romanza
TTITLE1=Romance in D minor Op.62
TTITLE2=Une idylle Op.4 No.1
TTITLE3=Two Pieces for Cello and Chamber Orchestra -I- Caprice
TTITLE4=Two Pieces for Cello and Chamber Orchestra -II- Elegy
TTITLE5=Youthful Rapture
TTITLE6=Fantasy
TTITLE7=The Holy Boy
TTITLE8=Solemn Melody
TTITLE9=Brigg Fair
TTITLE10=Invocation, Op. 19 No. 2
TTITLE11=Pastoral and Reel -I- Pastoral
TTITLE12=Pastoral and Reel -II- Reel
EXTD=YEAR: 1994
EXTT0=
EXTT1=
EXTT2=
EXTT3=
EXTT4=
EXTT5=
EXTT6=
EXTT7=
EXTT8=
EXTT9=
EXTT10=
EXTT11=
EXTT12=
PLAYORDER=
